# xmcd CD database file generated by Grip 3.2.0
#
# Track frame offsets:
#       183
#       20333
#       41970
#       59608
#
# Disc length: 1016 seconds
#
# Revision: 1
# Processed by: cddbd v1.5.1PL2 Copyright (c) Steve Scherf et al.
# Submitted via: Grip 3.2.0  GR/17.08.2006
#
DISCID=3303f604
DTITLE=Footsteps - Reaching for the Sky
DYEAR=1993
DGENRE=misc
TTITLE0=Reaching for the Sky
TTITLE1=You
TTITLE2=Set me free
TTITLE3=Hold me now
EXTD=
EXTT0=
EXTT1=
EXTT2=
EXTT3=
PLAYORDER=
